<svg width="59" height="65" viewBox="0 0 59 65" fill="none" xmlns="http://www.w3.org/2000/svg">
<path d="M25.0048 24.153C25.0048 21.0317 25.0048 15.6682 25.0048 14.6427C25.0048 11.6506 26.5582 9.6565 29.0865 9.61635C31.6481 9.57568 33.3023 11.6488 33.3023 14.6427C33.3023 17.1823 33.3098 22.2123 33.3023 24.1553M25.0048 24.153C25.0048 30.1394 25.0048 35.2597 25.0048 37.4893C25.0048 39.7373 21.8454 33.5874 19.3486 31.3489C18.3677 30.4695 16.5471 30.0279 15.3618 30.378C14.4957 30.6339 13.8397 31.0784 13.3706 31.9212C12.9015 32.7639 12.8872 34.4253 13.1567 35.7692C13.5285 37.624 14.4932 39.0175 15.4441 40.6299C17.2408 43.6768 17.4406 44.5359 18.8547 47.778C20.3918 51.3021 21.3578 53.1811 22.8104 55.5991C24.6885 58.7252 27.7935 62.628 30.5957 62.7303C33.3979 62.8326 43.8366 62.7303 46.1518 62.7303C48.4671 62.7303 55.9491 57.1875 56.6871 52.2521C57.2997 48.1552 56.9431 35.9157 56.9431 33.6674C56.9431 31.4191 54.9713 29.9449 53.2929 29.9449C51.6146 29.9449 50.2788 31.1203 49.6845 32.6967C49.5816 32.9695 49.1378 34.1552 49.0896 34.1552C49.0104 34.1552 48.7522 32.159 48.5693 30.33C48.3864 28.501 46.5187 27.1389 45.131 27.1389C43.7432 27.1389 42.0638 27.9354 41.4749 29.9449C41.3657 30.3174 41.2257 31.2688 41.1485 31.2688C41.0713 31.2688 41.1491 28.8267 40.6761 27.1389C40.259 25.6504 38.6846 24.668 37.3871 24.668C36.0897 24.668 34.916 25.1158 34.0371 26.5918C33.3233 27.7904 33.2576 29.1422 33.2576 28.2503C33.2576 27.1903 33.2891 27.5552 33.3023 24.1553M25.0048 24.153C21.511 22.4755 17.3124 19.5553 17.313 12.9953C17.3124 6.44156 22.7657 1.27734 29.0865 1.27734C35.5592 1.27734 40.8567 6.44312 40.8598 12.9931C40.8567 19.5531 36.4992 22.4753 33.3023 24.1553" stroke="black" stroke-width="2.5"/>
</svg>
